<svg version="1.1" id="Layer_1" xmlns="http://www.w3.org/2000/svg" xmlns:xlink="http://www.w3.org/1999/xlink" x="0px" y="0px" width="100%" viewBox="98 98 192 192" xml:space="preserve">
<path fill="#FFFFFF" opacity="1.000000" stroke="none" 
    d="
M221.350418,284.616577 
    C172.132172,298.452057 127.431572,273.741028 108.986237,234.376709 
    C82.668533,178.211929 118.376892,110.885757 179.413666,101.812050 
    C231.449844,94.076355 278.902435,128.508240 287.042419,180.597290 
    C294.257446,226.766830 266.219513,271.021667 221.350418,284.616577 
M236.246719,177.053177 
    C240.459579,179.039795 244.719055,180.934357 248.873383,183.036621 
    C253.925659,185.593307 258.509796,184.577408 260.878845,180.180695 
    C263.076111,176.102768 261.454834,171.746109 256.549377,168.938065 
    C251.338211,165.955002 245.907349,163.407822 240.247971,161.392639 
    C214.221725,152.125259 187.400024,149.707657 160.061874,152.511459 
    C151.970520,153.341309 143.899857,154.695251 136.134369,157.330902 
    C132.605316,158.528671 130.592957,161.078552 130.454117,164.754761 
    C130.331818,167.992737 131.871506,170.583359 134.825882,172.039368 
    C137.353577,173.285065 139.972672,172.759033 142.623505,172.127884 
    C174.033493,164.649185 205.007584,166.119537 236.246719,177.053177 
M179.481918,196.701385 
    C187.641815,196.832626 195.720764,197.733185 203.717987,199.336136 
    C215.858322,201.769516 227.439301,205.698441 238.212082,211.939850 
    C242.734848,214.560181 247.535751,212.706985 248.452011,208.178680 
    C249.355743,203.712204 246.361176,201.469223 242.992020,199.675400 
    C211.150772,182.722397 177.746124,179.384598 142.985184,188.380936 
    C137.994293,189.672592 135.891953,193.123047 137.128326,197.105972 
    C138.283615,200.827682 141.694885,202.325302 146.491089,201.043686 
    C156.981339,198.240570 167.640305,196.745560 179.481918,196.701385 
M223.682297,222.880814 
    C198.518433,211.781754 172.590286,212.410858 146.352142,217.852371 
    C142.939102,218.560196 139.878815,220.328323 140.746719,224.105560 
    C141.598373,227.812012 144.634094,228.725616 148.636734,227.874527 
    C164.161133,224.573456 179.803558,223.156967 195.671600,225.478485 
    C207.363403,227.189026 218.273178,230.909607 228.519958,236.736649 
    C231.223404,238.274017 234.202820,238.637634 236.025101,235.644928 
    C237.894012,232.575623 236.708221,229.817978 233.640259,228.076096 
    C230.605194,226.352844 227.467346,224.810608 223.682297,222.880814 
z"/>
</svg>